<?xml version="1.0" encoding="iso-8859-1"?>
<!-- Generator: Adobe Illustrator 19.0.0, SVG Export Plug-In . SVG Version: 6.00 Build 0)  -->
<svg version="1.1" id="Capa_1" xmlns="http://www.w3.org/2000/svg" xmlns:xlink="http://www.w3.org/1999/xlink" x="0px" y="0px"
	 viewBox="0 0 512 512" style="enable-background:new 0 0 512 512;" xml:space="preserve">
<g>
	<g>
		<g>
			<path d="M494.933,110.933h-17.067c-9.421,0.011-17.056,7.645-17.067,17.067h-8.533V42.667C452.239,19.114,433.153,0.028,409.6,0
				H102.4C78.847,0.028,59.761,19.114,59.733,42.667V128H51.2c-0.011-9.421-7.646-17.056-17.067-17.067H17.067
				C7.645,110.944,0.011,118.579,0,128v76.8c0.011,9.421,7.645,17.056,17.067,17.067h17.067c9.421-0.011,17.056-7.646,17.067-17.067
				h8.533v187.733c0,0.123,0.065,0.225,0.07,0.347c0.037,0.884,0.214,1.757,0.522,2.587c0.068,0.184,0.107,0.372,0.188,0.55
				c0.041,0.091,0.051,0.189,0.095,0.279L83.392,442.7c2.115,4.268,5.909,7.465,10.475,8.826V486.4
				c0.015,14.132,11.468,25.585,25.6,25.6H153.6c14.132-0.015,25.585-11.468,25.6-25.6v-34.133h153.6V486.4
				c0.015,14.132,11.468,25.585,25.6,25.6h34.133c14.132-0.015,25.585-11.468,25.6-25.6v-34.873
				c4.561-1.357,8.353-4.55,10.467-8.814l22.792-46.417c0.044-0.089,0.054-0.187,0.095-0.277c0.081-0.18,0.12-0.369,0.189-0.555
				c0.308-0.828,0.484-1.7,0.521-2.583c0.005-0.122,0.07-0.224,0.07-0.348V204.8h8.533c0.011,9.421,7.645,17.056,17.067,17.067
				h17.067c9.421-0.011,17.056-7.646,17.067-17.067V128C511.989,118.579,504.355,110.944,494.933,110.933z M17.067,204.8V128h17.067
				l0.001,8.529l-0.001,0.005v59.733l0.007,0.037l0.001,8.496H17.067z M59.733,187.733H51.2v-42.667h8.533V187.733z M76.8,332.8
				h17.067v17.067H76.8V332.8z M162.133,486.4c-0.005,4.711-3.823,8.529-8.533,8.533h-34.133c-4.711-0.005-8.529-3.822-8.533-8.533
				v-34.133h51.2V486.4z M401.067,486.4c-0.005,4.711-3.823,8.529-8.533,8.533H358.4c-4.711-0.005-8.529-3.822-8.533-8.533v-34.133
				h51.2V486.4z M413.258,435.2l-314.542-0.012l-16.75-34.121h348.067L413.258,435.2z M435.2,349.867h-17.067V332.8H435.2V349.867z
				 M435.2,273.067H136.533c-4.713,0-8.533,3.821-8.533,8.533s3.82,8.533,8.533,8.533H435.2v25.6h-76.8
				c-14.138,0-25.6,11.462-25.6,25.6c0,14.138,11.462,25.6,25.6,25.6h76.8V384H76.8v-17.067h76.8c14.138,0,25.6-11.462,25.6-25.6
				c0-14.138-11.461-25.6-25.6-25.6H76.8v-25.6h25.6c4.713,0,8.533-3.82,8.533-8.533s-3.82-8.533-8.533-8.533H76.8v-179.2h358.4
				V273.067z M401.067,332.8v17.067H358.4c-4.713,0-8.533-3.82-8.533-8.533s3.82-8.533,8.533-8.533H401.067z M110.933,349.867V332.8
				H153.6c4.713,0,8.533,3.821,8.533,8.533s-3.821,8.533-8.533,8.533H110.933z M145.067,76.8V59.733
				c0.005-4.711,3.823-8.529,8.533-8.533h204.8c4.711,0.005,8.529,3.822,8.533,8.533V76.8H145.067z M435.2,76.8H384V59.733
				c-0.015-14.132-11.468-25.585-25.6-25.6H153.6c-14.132,0.015-25.585,11.468-25.6,25.6V76.8H76.8V42.667
				c0.015-14.132,11.468-25.585,25.6-25.6h307.2c14.132,0.015,25.585,11.468,25.6,25.6V76.8z M460.8,187.733h-8.533v-42.667h8.533
				V187.733z M494.933,204.8h-17.067V128h17.067V204.8z"/>
			<path d="M324.267,128h42.667c4.713,0,8.533-3.82,8.533-8.533s-3.82-8.533-8.533-8.533h-42.667c-4.713,0-8.533,3.82-8.533,8.533
				S319.554,128,324.267,128z"/>
			<path d="M401.067,128h8.533c4.713,0,8.533-3.82,8.533-8.533s-3.82-8.533-8.533-8.533h-8.533c-4.713,0-8.533,3.82-8.533,8.533
				S396.354,128,401.067,128z"/>
		</g>
	</g>
</g>
<g>
</g>
<g>
</g>
<g>
</g>
<g>
</g>
<g>
</g>
<g>
</g>
<g>
</g>
<g>
</g>
<g>
</g>
<g>
</g>
<g>
</g>
<g>
</g>
<g>
</g>
<g>
</g>
<g>
</g>
</svg>
